<?xml version="1.0" encoding="UTF-8"?>
<svg id="Layer_1" data-name="Layer 1" xmlns="http://www.w3.org/2000/svg" viewBox="0 0 384.75 384">
  <path fill="#cf6ddfff" d="m384.75,30.69c-2.49,7.52-3.54,15.36-5.14,23.07-6.52,31.42-12.83,62.89-19.2,94.34-6.64,32.77-13.23,65.54-19.92,98.3-6.34,31.06-12.8,62.1-19.19,93.16-1.59,7.75-3.11,15.51-4.68,23.26-1.88,9.28-10.75,12.87-18.53,7.34-29.85-21.23-59.64-42.55-89.47-63.8-18.67-13.3-37.34-26.6-56.11-39.77-2.73-1.91-2.95-2.88-.47-5.36,46.45-46.3,92.8-92.7,139.15-139.09,30.22-30.25,60.42-60.52,90.63-90.77.86-.86,1.52-2.01,2.91-2.17v1.5Z"/>
  <path fill="#cf6ddfff" d="m369.46,13.23c-16.34,12.26-32.69,24.51-49.03,36.77-38.77,29.09-77.54,58.17-116.3,87.26-39.98,30-79.96,59.99-119.91,90.02-1.57,1.18-2.73,1.41-4.62.46-23.58-11.82-47.21-23.55-70.87-35.22-4.61-2.27-7.25-5.86-7.21-10.85.04-5.05,2.93-8.45,7.62-10.52,36.41-16.08,72.77-32.29,109.19-48.35,38.35-16.91,76.74-33.7,115.12-50.53,45.2-19.82,90.4-39.61,135.6-59.42.14.13.28.25.42.38Z"/>
  <path fill="#cf6ddfff" d="m249.52,132.41c-13.08,13.01-26.18,26-39.23,39.04-26.2,26.19-52.38,52.4-78.49,78.67-1.7,1.71-2.86,1.92-5.01.8-6.18-3.2-12.54-6.06-18.81-9.09-1.07-.52-2.37-.76-3.19-2.16,48.01-36.03,96.01-72.05,144.01-108.07.24.27.48.54.72.81Z"/>
  <path fill="#cf6ddfff" d="m114.02,359.99c-5.42-32.49-10.83-64.96-16.37-98.17,8.1,3.92,15.45,7.47,22.8,11.03.89.43,1.78.88,2.68,1.32,7.92,3.89,7.97,3.91,6.24,12.61-4.71,23.67-9.47,47.33-14.24,70.99-.16.8-.15,1.76-1.11,2.23Z"/>
  <path fill="#cf6ddfff" d="m136.07,367.06c1.92-9.65,3.66-18.45,5.41-27.25,2.97-14.9,6.01-29.78,8.86-44.7.45-2.38,1.05-2.28,2.72-1.1,10.35,7.35,20.7,14.68,31.12,21.92,2.56,1.78.46,2.62-.52,3.6-12.22,12.26-24.47,24.49-36.72,36.72-3.41,3.41-6.84,6.8-10.87,10.81Z"/>
</svg>