<?xml version="1.0" encoding="UTF-8"?>
<svg id="Layer_1" data-name="Layer 1" xmlns="http://www.w3.org/2000/svg" viewBox="0 0 384 384">
  <path fill="#cf6ddfff" d="m61.77,31.47c3.64,0,6.62,0,9.6,0,21.95,0,43.9.03,65.85-.06,2.54-.01,3.94.72,5.25,3.02,20.57,36.08,41.26,72.09,61.93,108.12,26.63,46.41,53.27,92.82,79.89,139.23,13.28,23.15,26.53,46.32,39.78,69.49.42.73,1.11,1.36.97,2.4-.98.74-2.13.36-3.18.36-26.19.03-52.38.02-78.58.08-2.14,0-3.52-.31-4.73-2.49-33.23-60.27-66.56-120.49-99.86-180.72-25.1-45.39-50.17-90.79-75.26-136.19-.47-.85-.89-1.72-1.67-3.24Z"/>
  <path fill="#cf6ddfff" d="m143.72,202.16c4.96,8.43,9.57,16.22,14.14,24.05,6.73,11.53,13.38,23.11,20.18,34.59,1.39,2.35,1.64,4.27.48,6.9-12.21,27.71-24.27,55.48-36.36,83.24-.75,1.73-1.26,3.21-3.83,3.2-25.32-.11-50.65-.07-75.97-.07-.37,0-.74-.09-1.74-.21,27.68-50.52,55.24-100.82,83.11-151.69Z"/>
  <path fill="#cf6ddfff" d="m237.57,173.28c-4.91-8.65-9.59-16.87-14.23-25.09-6.44-11.4-12.81-22.83-19.31-34.18-.97-1.7-1.11-3.01-.27-4.81,11.73-25.03,23.38-50.1,35.05-75.16.62-1.34.99-2.63,3.03-2.63,25.3.07,50.61.05,76.72.05-27.1,47.46-53.93,94.43-81,141.83Z"/>
</svg>